<?xml version="1.0" encoding="UTF-8" standalone="no"?>
<svg
   width="120"
   height="40"
   viewBox="0 0 120 40"
   version="1.1"
   id="svg2"
   sodipodi:docname="scroll-to-zoom.svg"
   inkscape:version="1.4.2 (ebf0e940d0, 2025-05-08)"
   xmlns:inkscape="http://www.inkscape.org/namespaces/inkscape"
   xmlns:sodipodi="http://sodipodi.sourceforge.net/DTD/sodipodi-0.dtd"
   xmlns="http://www.w3.org/2000/svg"
   xmlns:svg="http://www.w3.org/2000/svg">
  <defs
     id="defs2" />
  <sodipodi:namedview
     id="namedview2"
     pagecolor="#ffffff"
     bordercolor="#000000"
     borderopacity="0.25"
     inkscape:showpageshadow="2"
     inkscape:pageopacity="0.0"
     inkscape:pagecheckerboard="0"
     inkscape:deskcolor="#d1d1d1"
     inkscape:zoom="7.3625"
     inkscape:cx="75.585739"
     inkscape:cy="38.913413"
     inkscape:window-width="1920"
     inkscape:window-height="1017"
     inkscape:window-x="0"
     inkscape:window-y="32"
     inkscape:window-maximized="1"
     inkscape:current-layer="svg2" />
  <circle
     cx="6"
     cy="10"
     r="4"
     fill="none"
     stroke="white"
     stroke-width="1.5"
     id="circle1" />
  <line
     x1="9"
     y1="13"
     x2="12"
     y2="16"
     stroke="white"
     stroke-width="1.5"
     stroke-linecap="round"
     id="line1" />
  <text
     x="16"
     y="15"
     font-family="monospace"
     font-size="12"
     fill="white"
     stroke="white"
     stroke-width="0.5"
     id="text1">SCROLL TO ZOOM</text>
  <text
     x="16"
     y="35"
     font-family="monospace"
     font-size="12"
     fill="white"
     stroke="white"
     stroke-width="0.5"
     id="text2">DRAG TO PAN</text>
  <path
     d="m 101,30 v -4 a 1,1 0 0 1 2,0 v 4 m 1,0 v -6 a 1,1 0 0 1 2,0 v 6 m 1,0 v -5 a 1,1 0 0 1 2,0 v 5 m 1,0 v -3 a 1,1 0 0 1 2,0 v 6 a 3,3 0 0 1 -3,3 h -5 a 3,3 0 0 1 -3,-3 v -3"
     fill="none"
     stroke="#ffffff"
     stroke-width="1.5"
     stroke-linecap="round"
     stroke-linejoin="round"
     id="path2" />
</svg>
